<svg xmlns="http://www.w3.org/2000/svg" viewBox="0 0 240 240" width="240" height="240" role="img" aria-label="Illustration of Scott walking">
  
  <defs>
    <clipPath id="panel"><rect x="0" y="0" width="240" height="240" rx="28"/></clipPath>
    <radialGradient id="skin" cx="42%" cy="38%" r="70%">
      <stop offset="0%" stop-color="#f8d7b0"/><stop offset="100%" stop-color="#e7ad81"/>
    </radialGradient>
    <linearGradient id="hair" x1="0" y1="0" x2="0" y2="1">
      <stop offset="0%" stop-color="#e79a4c"/><stop offset="100%" stop-color="#bf7229"/>
    </linearGradient>
    <linearGradient id="beard" x1="0" y1="0" x2="0" y2="1">
      <stop offset="0%" stop-color="#d88a3c"/><stop offset="100%" stop-color="#b06a26"/>
    </linearGradient>
    <linearGradient id="shirt" x1="0" y1="0" x2="0" y2="1">
      <stop offset="0%" stop-color="#3a4152"/><stop offset="100%" stop-color="#232936"/>
    </linearGradient>
    <linearGradient id="tee" x1="0" y1="0" x2="0" y2="1">
      <stop offset="0%" stop-color="#e5484d"/><stop offset="100%" stop-color="#b52f3c"/>
    </linearGradient>
    <linearGradient id="lens" x1="0" y1="0" x2="0" y2="1">
      <stop offset="0%" stop-color="#cfe3ff" stop-opacity="0.35"/>
      <stop offset="100%" stop-color="#8fb2e0" stop-opacity="0.15"/>
    </linearGradient>
    <!-- gym -->
    <linearGradient id="wallGym" x1="0" y1="0" x2="0" y2="1">
      <stop offset="0%" stop-color="#3a2740"/><stop offset="100%" stop-color="#221826"/>
    </linearGradient>
    <!-- outdoors -->
    <linearGradient id="skyWalk" x1="0" y1="0" x2="0" y2="1">
      <stop offset="0%" stop-color="#7ec8ff"/><stop offset="100%" stop-color="#cfefff"/>
    </linearGradient>
    <!-- active -->
    <linearGradient id="wallActive" x1="0" y1="0" x2="0" y2="1">
      <stop offset="0%" stop-color="#3b1638"/><stop offset="100%" stop-color="#241033"/>
    </linearGradient>
  </defs>
  
  <style>
    .sprite { animation: bob 2.4s ease-in-out infinite; transform-origin: 120px 200px; }
    @keyframes bob { 0%,100% { transform: translateY(0); } 50% { transform: translateY(-2.4px); } }
    
    .dog { animation: trot 2.4s ease-in-out infinite; transform-origin: 188px 216px; }
    @keyframes trot { 0%,100% { transform: translateY(0); } 50% { transform: translateY(-3px); } }
    @media (prefers-reduced-motion: reduce) {
      .sprite, .bar, .drop, .dog, .ring, .ecg, .wh { animation: none !important; }
      .drop, .wh, .ring { opacity: 0 !important; }
      .ecg { stroke-dashoffset: 0 !important; }
    }
  </style>
  <g clip-path="url(#panel)">
    
  <rect x="0" y="0" width="240" height="240" fill="url(#skyWalk)"/>
  <circle cx="198" cy="52" r="18" fill="#ffd873"/>
  <circle cx="198" cy="52" r="18" fill="none" stroke="#fff2bf" stroke-width="3" opacity="0.6"/>
  <ellipse cx="60" cy="58" rx="26" ry="12" fill="#ffffff" opacity="0.85"/>
  <ellipse cx="82" cy="52" rx="18" ry="10" fill="#ffffff" opacity="0.85"/>
  <path d="M0 178 C60 150 120 170 180 150 C210 141 240 150 240 160 L240 240 L0 240 Z" fill="#8fce74"/>
  <rect x="42" y="120" width="8" height="42" rx="3" fill="#8a5a34"/>
  <circle cx="46" cy="116" r="22" fill="#5fae54"/>
  <circle cx="34" cy="122" r="12" fill="#69bd5d"/>
  <circle cx="58" cy="122" r="12" fill="#559c4a"/>
    <g transform="translate(26,46) scale(0.78)">
      <g class="sprite">
    
    <path d="M34 250 C34 196 74 176 120 176 C166 176 206 196 206 250 Z" fill="url(#shirt)"/>
    <path d="M96 178 C104 190 136 190 144 178 C140 172 100 172 96 178 Z" fill="#1b2029" opacity="0.7"/>
    <path d="M104 150 L136 150 L134 182 C130 190 110 190 106 182 Z" fill="url(#skin)"/>
    <path d="M104 150 L136 150 L135 160 C128 168 112 168 105 160 Z" fill="#d69f76" opacity="0.6"/>
    <circle cx="74" cy="104" r="9" fill="url(#skin)"/>
    <circle cx="166" cy="104" r="9" fill="url(#skin)"/>
    <ellipse cx="120" cy="96" rx="48" ry="52" fill="url(#skin)"/>
    <path d="M76 104 C84 113 96 119 108 119 C114 123 126 123 132 119
             C144 119 156 113 164 104 C170 141 150 172 120 172
             C90 172 70 141 76 104 Z" fill="url(#beard)"/>
    <path d="M92 150 C104 165 136 165 148 150 C138 160 102 160 92 150 Z" fill="#a5621f" opacity="0.5"/>
    <path d="M72 92 C64 44 96 26 120 26 C144 26 176 44 168 92
             C162 66 150 54 120 54 C90 54 78 66 72 92 Z" fill="url(#hair)"/>
    <path d="M120 54 C150 54 162 66 168 92 C166 70 156 60 138 56 C132 55 126 54 120 54 Z"
          fill="#a8641f" opacity="0.4"/>
    
    <path d="M86 78 C92 75 104 75 110 78" stroke="url(#beard)" stroke-width="4" fill="none" stroke-linecap="round"/>
    <path d="M130 78 C136 75 148 75 154 78" stroke="url(#beard)" stroke-width="4" fill="none" stroke-linecap="round"/>
    
    <g class="eyes">
      <ellipse cx="97" cy="99" rx="7.5" ry="8.5" fill="#fff"/>
      <ellipse cx="143" cy="99" rx="7.5" ry="8.5" fill="#fff"/>
      <circle cx="98.5" cy="100" r="4.2" fill="#3f6f9e"/>
      <circle cx="144.5" cy="100" r="4.2" fill="#3f6f9e"/>
      <circle cx="98.5" cy="100" r="2" fill="#10233a"/>
      <circle cx="144.5" cy="100" r="2" fill="#10233a"/>
      <circle cx="96.5" cy="97.5" r="1.4" fill="#fff"/>
      <circle cx="142.5" cy="97.5" r="1.4" fill="#fff"/>
    </g>
    
    <path d="M66 66 C74 44 166 44 174 66 Z" fill="#2f8f5b"/>
    <rect x="66" y="62" width="108" height="7" rx="2" fill="#245f3d"/>
    <path d="M52 70 C74 60 108 60 122 66 C104 74 72 78 52 70 Z" fill="#245f3d"/>
    <circle cx="120" cy="44" r="4" fill="#245f3d"/>
    
    <g stroke="#15161b" stroke-width="3" fill="none" stroke-linecap="round">
      <rect x="82" y="86" width="30" height="24" rx="9" fill="url(#lens)"/>
      <rect x="128" y="86" width="30" height="24" rx="9" fill="url(#lens)"/>
      <path d="M112 94 C118 90 122 90 128 94"/>
      <path d="M82 96 L72 100"/><path d="M158 96 L168 100"/>
    </g>
    <path d="M118 108 C116 115 120 119 126 117" stroke="#d69f76" stroke-width="3" fill="none" stroke-linecap="round"/>
    <path d="M106 138 C114 150 126 150 134 138 C126 147 114 147 106 138 Z" fill="#6f2f28"/>
    <path d="M110 139 C116 144 124 144 130 139 C124 143 116 143 110 139 Z" fill="#fff"/>
  </g>
    </g>
    
  <path d="M0 240 L0 212 C60 202 180 202 240 212 L240 240 Z" fill="#6cbf59"/>
  <path d="M0 214 C60 205 180 205 240 214" fill="none" stroke="#4f9e42" stroke-width="2" opacity="0.6"/>
  <!-- leash from Scott's hand down to the dachshund -->
  <path class="leash" d="M150 170 C164 190 182 200 196 208" stroke="#5a3d24" stroke-width="2.6" fill="none" stroke-linecap="round"/>
  <!-- dachshund -->
  <g class="dog">
    <ellipse cx="188" cy="216" rx="28" ry="9" fill="#9a6a34"/>
    <rect x="168" y="220" width="5" height="12" rx="2" fill="#875c2c"/>
    <rect x="180" y="221" width="5" height="12" rx="2" fill="#875c2c"/>
    <rect x="196" y="221" width="5" height="12" rx="2" fill="#875c2c"/>
    <rect x="208" y="220" width="5" height="12" rx="2" fill="#875c2c"/>
    <path d="M160 214 C150 210 150 220 158 222 Z" fill="#875c2c"/>
    <circle cx="214" cy="210" r="9" fill="#9a6a34"/>
    <path d="M210 204 C206 200 202 208 208 212 Z" fill="#7c4e26"/>
    <circle cx="217" cy="209" r="1.6" fill="#20140a"/>
    <circle cx="221" cy="212" r="1.4" fill="#20140a"/>
  </g>
  </g>
  <rect x="1.5" y="1.5" width="237" height="237" rx="27" fill="none"
        stroke="#ffffff" stroke-opacity="0.28" stroke-width="2"/>
</svg>
