<svg xmlns="http://www.w3.org/2000/svg" viewBox="0 0 100 100" width="240" height="240" role="img" aria-label="Scott, working out">
  <!-- Generated by scripts/status-sprites.mjs; edit the drawing there, not this file. -->
  <style>
    .s { fill: #00d4ff; fill-opacity: 0.06; stroke: #00d4ff; stroke-width: 0.8; stroke-linejoin: round; }
    .line, .p { fill: none; stroke: #00d4ff; stroke-width: 0.9; stroke-linecap: round; stroke-linejoin: round; }
    .dot { fill: #00d4ff; }
    .dim { opacity: 0.7; }
    text { font-family: 'JetBrains Mono', ui-monospace, Menlo, monospace; font-weight: 700; }
    .note line, .guide { stroke: #5a6076; stroke-width: 0.4; fill: none; }
    .guide { stroke-dasharray: 1.5 1.5; }
    .note text { font-size: 5.2px; font-weight: 400; fill: #8d93a8; }
    .fig { animation: bob 0.9s ease-in-out infinite; }
    .z { animation: rise 0.9s ease-out infinite; }
    .z2 { animation-delay: calc(0.9s / 2); }
    .steam { animation: steam 0.9s ease-in-out infinite; }
    .reps { animation: reps 0.9s ease-in-out infinite; }
    .trot { animation: reps calc(0.9s * 2) ease-in-out infinite; }
    .beat { transform-box: fill-box; transform-origin: center; animation: beat 0.9s ease-in-out infinite; }
    @keyframes bob { 50% { transform: translateY(-1.5px); } }
    @keyframes rise { 0% { opacity: 0; transform: translate(0, 4px); } 30% { opacity: 1; } 100% { opacity: 0; transform: translate(3px, -6px); } }
    @keyframes steam { 0%, 100% { opacity: 0.2; transform: translateY(1px); } 50% { opacity: 1; transform: translateY(-2px); } }
    @keyframes reps { 50% { transform: translateY(-7px); } }
    @keyframes beat { 0%, 60%, 100% { transform: scale(1); } 20% { transform: scale(1.18); } }
    @media (prefers-reduced-motion: reduce) { * { animation: none !important; } }
  </style>
  <g class="note">
    <circle class="guide" cx="50" cy="44" r="27"/>
    <line x1="42" y1="17" x2="34" y2="8.5"/><text x="2" y="7">hair: #d0a43d</text>
    <line x1="36" y1="43" x2="4" y2="54"/><text x="2" y="58.5">specs: x2</text>
    <line x1="36" y1="66" x2="8" y2="66"/><text x="2" y="71">beard: 100%</text>
  </g>
  <g class="fig">
    <path class="s" d="M22 100c0-15 10-22 20-24l8 5 8-5c10 2 20 9 20 24z"/>
    <ellipse class="s" cx="31.5" cy="45" rx="3" ry="4.5"/>
    <ellipse class="s" cx="68.5" cy="45" rx="3" ry="4.5"/>
    <path class="s" d="M32 42c0-13 7-20 18-20s18 7 18 20v8c0 13-8 22-18 22s-18-9-18-22z"/>
    <path class="s" d="M31.2 40c-1-15 7-24 18.8-24s20 9 18.8 24c-2-7-5-10.5-9.5-11.5-5 2-13 2-18.5 0-4.8 1-7.8 4.5-9.6 11.5z"/>
    <path class="s" d="M31.5 31q18.5-7 37 0l-.4 4.2q-18.2-6.5-36.2 0z"/>
    <path class="s" d="M32 47c1 5 3 7.5 6 8.5 4-2.5 8-2.8 12-1.2 4-1.6 8-1.3 12 1.2 3-1 5-3.5 6-8.5 1.5 18-5 30-18 31s-19.5-13-18-31z"/>
    <path class="s" d="M44 60q6 7 12 0z"/>
    <path class="line" d="M38 36.5q4-1.8 8 0M54 36.5q4-1.8 8 0"/>
    <circle class="dot" cx="42" cy="43" r="1.7"/><circle class="dot" cx="58" cy="43" r="1.7"/>
    <rect class="s" x="36" y="38.5" width="12" height="9" rx="2.5"/>
    <rect class="s" x="52" y="38.5" width="12" height="9" rx="2.5"/>
    <path class="line" d="M48 42q2-1.5 4 0M36 41l-4-1.5M64 41l4-1.5"/>
  </g>
  <g class="reps"><path class="p" d="M76 24h18M78 18v12M81 20v8M92 18v12M89 20v8"/></g>
    <path class="dot dim" d="M72 36q2 3 0 5a2.2 2.2 0 0 1-3-1.5c0-1.5 1.5-2.5 3-3.5z"/>
</svg>
